<?xml version="1.0" encoding="UTF-8"?>
<svg width="752pt" height="752pt" version="1.1" viewBox="0 0 752 752" xmlns="http://www.w3.org/2000/svg">
 <g>
  <path d="m539.11 255.33h-33.742v-17.473c0-8.1055-6.6016-14.703-14.707-14.703h-10.809v-2.6133c0-12.215-9.1211-22.262-20.762-22.871-6.0508-0.32031-11.859 1.8125-16.266 5.9922-4.3438 4.1211-6.8359 9.9219-6.8359 15.91v3.5859h-10.809c-8.1055 0-14.707 6.5977-14.707 14.703v17.473h-33.758c-10.605 0-19.23 8.625-19.23 19.227v98.27l-57.82-0.003906c-0.058594 0-0.10938 0.019531-0.16797 0.019531h-79.496c-3.918 0-7.3633 2.6406-8.3789 6.4258l-17.645 65.746c-0.70703 2.625-0.16797 5.3711 1.4883 7.5312 1.6562 2.1602 4.168 3.3984 6.8867 3.3984h9.8906v79.02c0 10.691 8.6992 19.391 19.387 19.391h68.027c0.015625 0 0.03125-0.007813 0.046875-0.007813h131.23c10.684 0 19.375-8.6914 19.375-19.371v-36.988h88.797c10.602 0 19.227-8.625 19.227-19.227v-204.2c0-10.605-8.6289-19.23-19.227-19.23zm-119.16-17.473c0-2.8867 2.3477-5.2344 5.2344-5.2344h15.543c2.6172 0 4.7344-2.1211 4.7344-4.7344l0.003906-8.3203c0-3.4492 1.3789-6.6602 3.8867-9.0391 2.5078-2.375 5.8008-3.5625 9.25-3.4023 6.4961 0.34375 11.785 6.3594 11.785 13.414v7.3477c0 2.6172 2.1172 4.7344 4.7344 4.7344h15.543c2.8867 0 5.2344 2.3477 5.2344 5.2344v17.473h-75.949zm-62.457 144.44v64.168h-23.086c-0.007813-0.007812-0.015626-0.019531-0.019532-0.027344l-27.531-64.141zm-136.88 0.019531h72.871l-17.219 64.16h-31.23c-0.019531 0-0.035156-0.011719-0.058594-0.011719-0.019531 0-0.035156 0.011719-0.058594 0.011719h-41.527zm11.02 162.57c-5.4648 0-9.9141-4.4492-9.9141-9.918v-79.02h18.527v31.336c0 2.6172 2.1172 4.7344 4.7344 4.7344 2.6172 0 4.7344-2.1211 4.7344-4.7344v-31.336h30.18c2.1406 0 4.0195-1.4375 4.5742-3.5078l0.77734-2.9023c0-0.003907 0.003906-0.011719 0.007812-0.015625l9.6641-36.02v131.38zm209.21-9.9102c0 5.4609-4.4414 9.8984-9.9023 9.8984l-126.54 0.003906v-144.28l21.504 50.102 0.003906-0.003906c0.082031 0.1875 0.17578 0.37109 0.28125 0.55078l0.73047 1.7656c0.73438 1.7695 2.4609 2.9219 4.375 2.9219h26.191v22.828c0 10.602 8.625 19.227 19.23 19.227h64.121zm108.02-56.211c0 5.3789-4.375 9.7539-9.7539 9.7539h-162.39c-5.3789 0-9.7578-4.375-9.7578-9.7539v-204.21c0-5.3789 4.3789-9.7578 9.7578-9.7578h38.457c0.011719 0 0.023437 0.007812 0.035156 0.007812h85.422c0.011719 0 0.023438-0.007812 0.035156-0.007812h38.445c5.3789 0 9.7539 4.3789 9.7539 9.7578z"/>
  <path d="m529.91 279.01h-144.02c-2.6172 0-4.7344 2.1211-4.7344 4.7344v185.83c0 2.6172 2.1172 4.7344 4.7344 4.7344l144.02 0.003906c2.6172 0 4.7344-2.1211 4.7344-4.7344l0.003906-185.84c0-2.6133-2.1211-4.7344-4.7383-4.7344zm-4.7344 185.83h-134.55v-176.36h134.55z"/>
  <path d="m244.98 506.23c-2.6172 0-4.7344 2.1211-4.7344 4.7344v4.7344c0 2.6172 2.1172 4.7344 4.7344 4.7344 2.6172 0 4.7344-2.1211 4.7344-4.7344v-4.7344c0-2.6133-2.1172-4.7344-4.7344-4.7344z"/>
  <path d="m445.56 335.83h55.059c2.6172 0 4.7344-2.1211 4.7344-4.7344 0-2.6172-2.1172-4.7344-4.7344-4.7344l-55.059-0.003906c-2.6172 0-4.7344 2.1211-4.7344 4.7344 0 2.6172 2.1172 4.7383 4.7344 4.7383z"/>
  <path d="m415.2 335.83h5.7891c2.6172 0 4.7344-2.1211 4.7344-4.7344 0-2.6172-2.1172-4.7344-4.7344-4.7344h-5.7891c-2.6172 0-4.7344 2.1211-4.7344 4.7344 0 2.6133 2.1172 4.7344 4.7344 4.7344z"/>
  <path d="m445.56 366.21h55.059c2.6172 0 4.7344-2.1211 4.7344-4.7344 0-2.6172-2.1172-4.7344-4.7344-4.7344l-55.059-0.003907c-2.6172 0-4.7344 2.1211-4.7344 4.7344 0 2.6172 2.1172 4.7383 4.7344 4.7383z"/>
  <path d="m415.2 366.21h5.7891c2.6172 0 4.7344-2.1211 4.7344-4.7344 0-2.6172-2.1172-4.7344-4.7344-4.7344h-5.7891c-2.6172 0-4.7344 2.1211-4.7344 4.7344 0 2.6133 2.1172 4.7344 4.7344 4.7344z"/>
  <path d="m445.56 396.59h55.059c2.6172 0 4.7344-2.1211 4.7344-4.7344 0-2.6172-2.1172-4.7344-4.7344-4.7344l-55.059-0.003906c-2.6172 0-4.7344 2.1211-4.7344 4.7344 0 2.6172 2.1172 4.7383 4.7344 4.7383z"/>
  <path d="m415.2 396.59h5.7891c2.6172 0 4.7344-2.1211 4.7344-4.7344 0-2.6172-2.1172-4.7344-4.7344-4.7344h-5.7891c-2.6172 0-4.7344 2.1211-4.7344 4.7344s2.1172 4.7344 4.7344 4.7344z"/>
  <path d="m445.56 426.97h55.059c2.6172 0 4.7344-2.1211 4.7344-4.7344 0-2.6172-2.1172-4.7344-4.7344-4.7344l-55.059-0.003906c-2.6172 0-4.7344 2.1211-4.7344 4.7344 0 2.6172 2.1172 4.7383 4.7344 4.7383z"/>
  <path d="m415.2 426.97h5.7891c2.6172 0 4.7344-2.1211 4.7344-4.7344 0-2.6172-2.1172-4.7344-4.7344-4.7344h-5.7891c-2.6172 0-4.7344 2.1211-4.7344 4.7344s2.1172 4.7344 4.7344 4.7344z"/>
 </g>
</svg>
